HIERARCHY
ROOT reference
{
  OFFSET 0 0 0
  CHANNELS 6 Xposition Yposition Zposition Zrotation Xrotation Yrotation
  JOINT Hips
  {
    OFFSET 0 97.8064 0
    CHANNELS 6 Xposition Yposition Zposition Zrotation Xrotation Yrotation
    JOINT ToSpine
    {
      OFFSET -2.69724 7.43032 -0.144315
      CHANNELS 6 Xposition Yposition Zposition Zrotation Xrotation Yrotation
      JOINT Spine
      {
        OFFSET -0.0310711 10.7595 1.96963
        CHANNELS 6 Xposition Yposition Zposition Zrotation Xrotation Yrotation
        JOINT Spine1
        {
          OFFSET 13.1342 3.43533 0.764692
          CHANNELS 6 Xposition Yposition Zposition Zrotation Xrotation Yrotation
          JOINT Neck
          {
            OFFSET 29.8703 7.82586 -0.130764
            CHANNELS 6 Xposition Yposition Zposition Zrotation Xrotation Yrotation
            JOINT Head
            {
              OFFSET 9.52751 0.295786 -0.907742
              CHANNELS 6 Xposition Yposition Zposition Zrotation Xrotation Yrotation
              End Site
              {
                OFFSET 16.4037 0.713936 2.7358
              }
            }
          }
          JOINT LeftShoulder
          {
            OFFSET 27.5574 4.95586 2.47156
            CHANNELS 6 Xposition Yposition Zposition Zrotation Xrotation Yrotation
            JOINT LeftArm
            {
              OFFSET 1.20734 -0.998971 20.1238
              CHANNELS 6 Xposition Yposition Zposition Zrotation Xrotation Yrotation
              JOINT LeftForeArm
              {
                OFFSET 26.8049 -0.0536703 -0.155908
                CHANNELS 6 Xposition Yposition Zposition Zrotation Xrotation Yrotation
                JOINT LeftHand
                {
                  OFFSET 26.6817 0 0.320147
                  CHANNELS 6 Xposition Yposition Zposition Zrotation Xrotation Yrotation
                  End Site
                  {
                    OFFSET 18.6119 0 0.382219
                  }
                }
              }
            }
          }
          JOINT RightShoulder
          {
            OFFSET 27.5927 4.71444 -2.65209
            CHANNELS 6 Xposition Yposition Zposition Zrotation Xrotation Yrotation
            JOINT RightArm
            {
              OFFSET 2.83739 -1.17114 -18.7564
              CHANNELS 6 Xposition Yposition Zposition Zrotation Xrotation Yrotation
              JOINT RightForeArm
              {
                OFFSET 28.839 -0.0548439 1.22491
                CHANNELS 6 Xposition Yposition Zposition Zrotation Xrotation Yrotation
                JOINT RightHand
                {
                  OFFSET 26.5114 0 -0.101894
                  CHANNELS 6 Xposition Yposition Zposition Zrotation Xrotation Yrotation
                  End Site
                  {
                    OFFSET 18.2168 0 0
                  }
                }
              }
            }
          }
        }
      }
    }
    JOINT LeftUpLeg
    {
      OFFSET -4.76168 -1.9167 -10.2353
      CHANNELS 6 Xposition Yposition Zposition Zrotation Xrotation Yrotation
      JOINT LeftLeg
      {
        OFFSET 2.55951 -42.0585 -8.02213
        CHANNELS 6 Xposition Yposition Zposition Zrotation Xrotation Yrotation
        JOINT LeftFoot
        {
          OFFSET 3.16357 -42.5282 -3.95426
          CHANNELS 6 Xposition Yposition Zposition Zrotation Xrotation Yrotation
          JOINT LeftToeBase
          {
            OFFSET 0.346054 -6.02161 12.8035
            CHANNELS 6 Xposition Yposition Zposition Zrotation Xrotation Yrotation
            End Site
            {
              OFFSET 0.134235 -1.35082 5.13018
            }
          }
        }
      }
    }
    JOINT RightUpLeg
    {
      OFFSET -4.94151 -1.41743 10.6446
      CHANNELS 6 Xposition Yposition Zposition Zrotation Xrotation Yrotation
      JOINT RightLeg
      {
        OFFSET -2.56294 -42.0364 -7.94377
        CHANNELS 6 Xposition Yposition Zposition Zrotation Xrotation Yrotation
        JOINT RightFoot
        {
          OFFSET -3.0952 -42.555 -4.02241
          CHANNELS 6 Xposition Yposition Zposition Zrotation Xrotation Yrotation
          JOINT RightToeBase
          {
            OFFSET -0.0828122 -6.13587 12.8035
            CHANNELS 6 Xposition Yposition Zposition Zrotation Xrotation Yrotation
            End Site
            {
              OFFSET -0.131328 -1.35082 5.13018
            }
          }
        }
      }
    }
  }
}
MOTION
Frames:	8
Frame Time:	0.0333333
0 0 0 0 0 -0 0 97.8064 0 -9.21641 -69.4912 -99.4257 -2.69724 7.43032 -0.144315 -70.1915 -6.18407e-015 88.8779 -0.0310711 10.7595 1.96963 64.9783 69.5887 25.2871 13.1342 3.43533 0.764692 4.60351 20.8703 1.40837 29.8703 7.82586 -0.130764 -158.867 19.9774 178.863 9.52751 0.295786 -0.907742 -163.551 59.618 -171.956 27.5574 4.95586 2.47156 3.81932 1.88815 -1.18989 1.20734 -0.998971 20.1238 -90 -2.89528e-014 -90 26.8049 -0.0536703 -0.155908 -2.27865e-008 -1.09882e-007 -6.77748e-008 26.6817 -2.84217e-014 0.320147 -4.83776e-016 2.19066e-016 -1.61484e-015 27.5927 4.71444 -2.65209 2.06088 1.77022 3.86625 2.83739 -1.17114 -18.7564 -88.2385 5 88.8941 28.839 -0.0548439 1.22491 1.27948e-006 4.79839e-007 0.0043221 26.5114 0 -0.101894 -1.10621e-012 -4.76474e-009 -0.0296889 -4.76168 -1.9167 -10.2353 -54.5197 2.7833 99.4142 2.55951 -42.0585 -8.02213 -1.21668 19.2657 -6.32176 3.16357 -42.5282 -3.95426 3.72058 -5.93042 -0.842831 0.346054 -6.02161 12.8035 0.207147 -0.61891 0.346907 -4.94151 -1.41743 10.6446 -55.5919 -0.189965 81.4537 -2.56294 -42.0364 -7.94377 1.38344 13.6714 6.74024 -3.0952 -42.555 -4.02241 -6.15803 -1.03764 0.970027 -0.0828122 -6.13587 12.8035 1.52296 -4.82373 -7.85573 
0 0 0 0 0 -0 8.57276 92.4111 -23.3044 70.5531 -36.8603 -11.1361 -2.69724 7.43032 -0.144315 -70.1915 -2.78299e-015 88.8779 -0.0310711 10.7595 1.96963 76.9058 71.7662 6.34227 13.1342 3.43533 0.764692 5.04522 20.5363 4.53199 29.8703 7.82586 -0.130764 -118.8 31.4988 154.881 9.52751 0.295786 -0.907742 169.262 75.7834 -141.255 27.5574 4.95586 2.47156 0.0390125 -16.9524 -24.8308 1.20734 -0.998971 20.1238 -67.1783 38.5178 -143.229 26.8049 -0.0536703 -0.155908 30.921 -2.89946 -94.1161 26.6817 -4.26326e-014 0.320147 3.18055e-015 0 -3.18055e-015 27.5927 4.71444 -2.65209 -1.72474 7.12076 38.6574 2.83739 -1.17114 -18.7564 -136.475 -10.5118 93.6191 28.839 -0.0548439 1.22491 22.7302 -0.546592 88.4677 26.5114 5.68434e-014 -0.101894 -1.11562e-012 -4.76475e-009 -0.0296889 -4.76168 -1.9167 -10.2353 -46.9119 10.7721 94.0152 2.55951 -42.0585 -8.02213 -3.50236 47.3998 -7.31514 3.16357 -42.5282 -3.95426 2.70345 -14.7548 -1.26422 0.346054 -6.02161 12.8035 4.30054 -11.4776 13.3795 -4.94151 -1.41743 10.6446 -40.5948 -13.4997 81.561 -2.56294 -42.0364 -7.94377 1.61286 36.677 1.0421 -3.0952 -42.555 -4.02241 -4.22172 -2.28628 0.790192 -0.0828122 -6.13587 12.8035 1.13599 -7.77571 -2.09406 
0 0 0 0 0 -0 8.5531 92.4617 -23.2522 70.2412 -36.6977 -11.2376 -2.69724 7.43032 -0.144315 -70.1915 -1.19271e-015 88.8779 -0.0310711 10.7595 1.96963 76.0387 71.7471 7.31959 13.1342 3.43533 0.764692 5.14344 20.5621 4.54369 29.8703 7.82586 -0.130764 -119.835 31.6121 156.038 9.52751 0.295786 -0.907742 166.947 75.1527 -139.262 27.5574 4.95586 2.47156 0.0418739 -16.8464 -25.0481 1.20734 -0.998971 20.1238 -67.4445 38.3458 -142.665 26.8049 -0.0536703 -0.155908 30.5399 -2.99011 -94.3401 26.6817 -2.84217e-014 0.320147 -6.36111e-015 -1.59028e-015 -0 27.5927 4.71444 -2.65209 -1.67768 7.07192 38.1687 2.83739 -1.17114 -18.7564 -136.108 -10.4666 93.0737 28.839 -0.0548439 1.22491 22.1808 -0.571756 88.3732 26.5114 2.84217e-014 -0.101894 -1.11402e-012 -4.76474e-009 -0.0296889 -4.76168 -1.9167 -10.2353 -46.6805 10.7492 93.7982 2.55951 -42.0585 -8.02213 -3.60749 47.4178 -8.17104 3.16357 -42.5282 -3.95426 0.485093 -15.0541 -1.28923 0.346054 -6.02161 12.8035 4.3613 -11.7124 14.4584 -4.94151 -1.41743 10.6446 -40.485 -13.3272 81.6601 -2.56294 -42.0364 -7.94377 1.64063 36.6561 1.29027 -3.0952 -42.555 -4.02241 -5.93984 -1.54866 0.956716 -0.0828122 -6.13587 12.8035 1.36067 -9.20248 -3.03816 
0 0 0 0 0 -0 8.50064 92.4888 -23.1988 69.8935 -36.6466 -11.2853 -2.69724 7.43032 -0.144315 -70.1915 -5.96354e-015 88.8779 -0.0310711 10.7595 1.96963 75.8487 71.5915 7.70815 13.1342 3.43533 0.764692 4.95879 20.4547 4.43331 29.8703 7.82586 -0.130764 -119.604 31.5526 156.032 9.52751 0.295786 -0.907742 167.463 75.1834 -139.718 27.5574 4.95586 2.47156 0.0799535 -16.698 -24.7864 1.20734 -0.998971 20.1238 -67.1474 39.1446 -142.154 26.8049 -0.0536703 -0.155908 31.2089 -2.9369 -94.1234 26.6817 -4.26326e-014 0.320147 -6.36111e-015 1.59028e-015 1.59028e-015 27.5927 4.71444 -2.65209 -1.72723 7.12116 38.6888 2.83739 -1.17114 -18.7564 -135.788 -10.3319 93.476 28.839 -0.0548439 1.22491 21.7713 -0.574416 88.3383 26.5114 2.84217e-014 -0.101894 -1.09653e-012 -4.76474e-009 -0.0296889 -4.76168 -1.9167 -10.2353 -46.424 11.0289 93.8582 2.55951 -42.0585 -8.02213 -3.5484 47.2615 -7.84954 3.16357 -42.5282 -3.95426 0.726207 -15.1091 -1.29308 0.346054 -6.02161 12.8035 4.2902 -11.4501 13.3085 -4.94151 -1.41743 10.6446 -40.2708 -13.1375 81.5446 -2.56294 -42.0364 -7.94377 1.56384 36.4897 0.752205 -3.0952 -42.555 -4.02241 -4.80438 -1.97515 0.839597 -0.0828122 -6.13587 12.8035 1.16711 -8.24971 -1.95072 
0 0 0 0 0 -0 8.53874 92.4894 -23.1704 69.9569 -36.5578 -11.2628 -2.69724 7.43032 -0.144315 -70.1915 -3.97569e-016 88.8779 -0.0310711 10.7595 1.96963 75.6807 71.5996 7.85041 13.1342 3.43533 0.764692 5.14345 20.4734 4.40347 29.8703 7.82586 -0.130764 -119.935 31.6543 156.208 9.52751 0.295786 -0.907742 167.484 75.1926 -139.869 27.5574 4.95586 2.47156 0.0642954 -16.7376 -24.9485 1.20734 -0.998971 20.1238 -67.3569 38.6499 -142.009 26.8049 -0.0536703 -0.155908 31.9887 -2.94616 -93.995 26.6817 -2.84217e-014 0.320147 -6.36111e-015 -4.77083e-015 -0 27.5927 4.71444 -2.65209 -1.77965 7.20161 39.1274 2.83739 -1.17114 -18.7564 -135.644 -9.75719 93.7436 28.839 -0.0548439 1.22491 20.9958 -0.502372 88.4624 26.5114 1.42109e-014 -0.101894 -1.10608e-012 -4.76475e-009 -0.0296889 -4.76168 -1.9167 -10.2353 -46.5002 10.9903 93.8717 2.55951 -42.0585 -8.02213 -3.60489 47.2061 -8.3894 3.16357 -42.5282 -3.95426 0.851948 -14.8419 -1.27247 0.346054 -6.02161 12.8035 4.4159 -11.7928 14.4515 -4.94151 -1.41743 10.6446 -40.4123 -13.2074 81.4456 -2.56294 -42.0364 -7.94377 1.51173 36.3654 0.399917 -3.0952 -42.555 -4.02241 -5.73632 -1.87943 0.941948 -0.0828122 -6.13587 12.8035 1.1518 -8.72213 -1.1882 
0 0 0 0 0 -0 8.53662 92.5416 -23.1272 69.8349 -36.4754 -11.3191 -2.69724 7.43032 -0.144315 -70.1915 -4.37326e-015 88.8779 -0.0310711 10.7595 1.96963 76.8695 71.5057 6.85325 13.1342 3.43533 0.764692 4.63013 20.3889 4.18761 29.8703 7.82586 -0.130764 -120.119 31.6934 156.501 9.52751 0.295786 -0.907742 167.3 75.1036 -139.823 27.5574 4.95586 2.47156 0.12612 -16.3945 -24.7742 1.20734 -0.998971 20.1238 -66.968 38.862 -142.185 26.8049 -0.0536703 -0.155908 32.6395 -3.14648 -94.1873 26.6817 -4.26326e-014 0.320147 -3.18055e-015 7.95139e-016 -1.59028e-015 27.5927 4.71444 -2.65209 -1.80921 7.20713 39.5143 2.83739 -1.17114 -18.7564 -135.169 -9.60534 93.986 28.839 -0.0548439 1.22491 20.2462 -0.460161 88.521 26.5114 4.26326e-014 -0.101894 -1.10766e-012 -4.76475e-009 -0.0296889 -4.76168 -1.9167 -10.2353 -46.4582 10.9305 93.7881 2.55951 -42.0585 -8.02213 -3.55504 47.0362 -8.18407 3.16357 -42.5282 -3.95426 0.611517 -14.9169 -1.27872 0.346054 -6.02161 12.8035 4.29925 -11.5559 13.9914 -4.94151 -1.41743 10.6446 -40.3471 -13.1673 81.5092 -2.56294 -42.0364 -7.94377 1.56074 36.3739 0.798856 -3.0952 -42.555 -4.02241 -5.12937 -1.76294 0.868724 -0.0828122 -6.13587 12.8035 1.23113 -8.449 -2.42173 
0 0 0 0 0 -0 8.56189 92.5013 -23.0958 69.8251 -36.5191 -11.4037 -2.69724 7.43032 -0.144315 -70.1915 -2.38542e-015 88.8779 -0.0310711 10.7595 1.96963 77.8285 71.5342 5.86336 13.1342 3.43533 0.764692 4.10427 20.4173 4.07206 29.8703 7.82586 -0.130764 -119.466 31.3592 156.032 9.52751 0.295786 -0.907742 168.579 75.1114 -140.471 27.5574 4.95586 2.47156 0.140739 -16.3827 -24.546 1.20734 -0.998971 20.1238 -66.7315 39.2638 -142.122 26.8049 -0.0536703 -0.155908 32.4969 -3.12577 -94.1818 26.6817 -2.84217e-014 0.320147 -6.36111e-015 -1.59028e-015 -1.59028e-015 27.5927 4.71444 -2.65209 -1.75612 7.04221 39.3853 2.83739 -1.17114 -18.7564 -134.76 -9.99604 93.979 28.839 -0.0548439 1.22491 19.4011 -0.456127 88.4747 26.5114 4.26326e-014 -0.101894 -1.10845e-012 -4.76474e-009 -0.0296889 -4.76168 -1.9167 -10.2353 -46.5352 10.9656 93.9758 2.55951 -42.0585 -8.02213 -3.4757 46.9681 -7.5823 3.16357 -42.5282 -3.95426 1.04641 -15.0063 -1.28401 0.346054 -6.02161 12.8035 4.2991 -11.3758 12.6703 -4.94151 -1.41743 10.6446 -40.3859 -13.2055 81.5373 -2.56294 -42.0364 -7.94377 1.45594 36.2524 -0.00408523 -3.0952 -42.555 -4.02241 -5.69684 -2.12475 0.945782 -0.0828122 -6.13587 12.8035 1.02896 -8.45209 -0.256758 
0 0 0 0 0 -0 8.59787 92.5645 -23.0887 69.8644 -36.5357 -11.2877 -2.69724 7.43032 -0.144315 -70.1915 0 88.8779 -0.0310711 10.7595 1.96963 78.235 71.5272 5.73517 13.1342 3.43533 0.764692 4.14359 20.4892 3.80139 29.8703 7.82586 -0.130764 -119.364 31.2566 155.724 9.52751 0.295786 -0.907742 169.307 75.1921 -141.107 27.5574 4.95586 2.47156 0.155733 -16.3366 -24.4095 1.20734 -0.998971 20.1238 -66.8702 39.0834 -142.102 26.8049 -0.0536703 -0.155908 32.2665 -3.13201 -94.2346 26.6817 -1.42109e-014 0.320147 1.76556e-031 3.18055e-015 -3.18055e-015 27.5927 4.71444 -2.65209 -1.72262 6.92146 39.3631 2.83739 -1.17114 -18.7564 -134.49 -10.1124 94.036 28.839 -0.0548439 1.22491 18.4804 -0.420091 88.5107 26.5114 1.42109e-014 -0.101894 -1.10686e-012 -4.76474e-009 -0.0296889 -4.76168 -1.9167 -10.2353 -46.6739 10.9899 93.8803 2.55951 -42.0585 -8.02213 -3.48501 46.7952 -7.88366 3.16357 -42.5282 -3.95426 0.89813 -15.1148 -1.29252 0.346054 -6.02161 12.8035 4.10148 -11.1715 13.4554 -4.94151 -1.41743 10.6446 -40.3269 -13.0244 81.8155 -2.56294 -42.0364 -7.94377 1.63388 36.5092 1.33907 -3.0952 -42.555 -4.02241 -3.29407 -2.18719 0.68004 -0.0828122 -6.13587 12.8035 1.31899 -7.42409 -4.32909 
